:SAMPLES-PER-SECOND 30
:FRAME-RANGE 1-3535
:FULLY-SPECIFIED
:DEGREES
2099
root  11.3993 36.2811 -35.8147 -1.15244 -42.1319 10.6815
RightUpLeg  -24.5737 -20.285 -13.9763
RightLeg  52.6994 -0.359662 -0.897171
RightFoot  -27.042 2.00808 15.8139
RightToes  1.22775e-009 1.2921e-014 -6.02303e-014
Spine  22.8424 3.18642 13.3129
Spine1  -11.3817 7.15188 -15.4532
HEad  -35.6237 10.9164 -17.6077
LeftShoulder1  1.22046 -1.22812 -19.2705
LeftArm  -24.8968 -3.46114 -19.1041
LeftForeArm  179.537 -56.6001 -165.638
LeftHand  -0.0455047 5.12979 14.4601
RightShoulder  0.146565 33.8498 -9.22478
RightArm  -71.7027 36.2561 -9.9591
RightForeArm  23.7112 42.2552 8.59545
RightHand  -0.539717 5.41378 -6.103
LeftUpLeg  -12.7336 5.8236 15.5643
LeftLeg  31.2121 -7.36986 -4.45421
LeftFoot  -12.8912 -0.311222 -28.1295
LeftToes  2.52163e-011 5.65494e-011 -1.09494e-012
2100
root  9.28495 37.1397 -34.6708 3.91284 -35.6348 2.33929
RightUpLeg  -14.8117 -29.2174 -9.28964
RightLeg  47.1436 3.60725 3.7723
RightFoot  -23.4817 1.68639 17.2471
RightToes  1.22775e-009 1.2921e-014 -6.02303e-014
Spine  15.895 2.63302 24.8395
Spine1  -13.6331 6.42567 -12.5936
HEad  -27.7023 6.96216 -11.4849
LeftShoulder1  1.00658 -0.803471 -16.6487
LeftArm  -21.2543 -8.29171 -23.6182
LeftForeArm  -174.46 -51.9951 -168.249
LeftHand  -0.19725 3.79676 13.6573
RightShoulder  -1.73372 30.5705 -15.422
RightArm  -70.5614 31.9211 -10.2601
RightForeArm  23.1825 39.6163 7.79759
RightHand  -0.748248 4.71878 -8.86535
LeftUpLeg  -2.18333 0.0240479 17.921
LeftLeg  174.993 51.4329 179.493
LeftFoot  -60.1924 -1.38044 -3.87422
LeftToes  2.52163e-011 5.65494e-011 -1.09494e-012
2101
root  5.83005 40.2915 -34.3848 3.10684 -23.5298 4.52744
RightUpLeg  -0.22629 -26.1902 -10.5331
RightLeg  27.7511 -6.51586 3.31044
RightFoot  -6.24082 -1.16908 24.9103
RightToes  1.22775e-009 1.2921e-014 -6.02303e-014
Spine  7.90264 2.99226 17.3441
Spine1  -10.5227 4.89327 -10.0763
HEad  -17.8622 1.18305 -5.11341
LeftShoulder1  1.14747 -1.72317 -15.1115
LeftArm  -12.4968 -18.8191 -33.6684
LeftForeArm  179.478 -58.799 -164.405
LeftHand  -0.125215 4.33877 12.4459
RightShoulder  -2.21867 23.7148 -18.946
RightArm  -62.9889 28.7889 -10.6381
RightForeArm  19.9754 32.5639 6.05254
RightHand  -0.715654 4.5841 -8.59997
LeftUpLeg  -6.30458 11.3738 15.3418
LeftLeg  178.342 51.777 -173.745
LeftFoot  -42.8575 1.59991 4.73858
LeftToes  2.52163e-011 5.65494e-011 -1.09494e-012
2102
root  3.50412 41.9179 -34.0101 2.30475 -8.93375 2.18442
RightUpLeg  1.15481 -11.0772 -0.663424
RightLeg  27.8692 -25.1865 -5.26136
RightFoot  15.3016 -8.27654 34.4539
RightToes  1.22775e-009 1.2921e-014 -6.02303e-014
Spine  3.45134 0.74904 14.8299
Spine1  -8.83667 1.59961 -2.30461
HEad  -10.4435 -5.89349 -0.083422
LeftShoulder1  1.63791 -4.00109 -14.9835
LeftArm  -0.385102 -29.9478 -48.4452
LeftForeArm  167.802 -73.7395 -146.783
LeftHand  -0.32218 2.00726 10.8916
RightShoulder  -1.73677 15.6691 -20.0379
RightArm  -50.5325 26.4449 -11.76
RightForeArm  15.2784 23.8348 4.29825
RightHand  -0.452339 4.98843 -5.35456
LeftUpLeg  -7.83137 8.29923 19.4482
LeftLeg  178.207 50.8525 -174.437
LeftFoot  -72.124 -5.80009 -10.6733
LeftToes  2.52163e-011 5.65494e-011 -1.09494e-012
2103
root  0.783352 44.0583 -34.2514 0.232666 3.43542 0.741821
RightUpLeg  0.542952 -14.8192 4.60341
RightLeg  32.1727 -18.1852 1.46548
RightFoot  15.2747 -10.7618 43.9137
RightToes  1.22775e-009 1.2921e-014 -6.02303e-014
Spine  6.09186 -1.86705 9.63906
Spine1  -10.3049 -1.66864 2.09759
HEad  -6.20206 -11.0635 4.28898
LeftShoulder1  1.98612 -5.57342 -15.0495
LeftArm  16.2804 -37.5262 -67.4389
LeftForeArm  78.3298 -78.3356 -48.0635
LeftHand  -0.519754 -0.0667186 11.136
RightShoulder  -1.3149 10.1624 -20.7121
RightArm  -45.1064 22.2231 -13.3458
RightForeArm  21.9853 12.4821 6.22959
RightHand  -0.303975 5.14187 -3.65375
LeftUpLeg  -8.89609 1.88281 22.7267
LeftLeg  178.333 45.9689 -177.695
LeftFoot  -80.4413 -10.9387 -16.6139
LeftToes  2.52163e-011 5.65494e-011 -1.09494e-012
2104
root  -3.49649 47.938 -35.2437 2.50742 13.0814 7.22125
RightUpLeg  -2.1235 -37.4806 6.40082
RightLeg  24.7579 17.6445 8.48972
RightFoot  25.1175 -11.5172 34.6063
RightToes  1.22775e-009 1.2921e-014 -6.02303e-014
Spine  10.916 -3.0007 -12.6705
Spine1  -7.82907 -4.43239 2.61825
HEad  -3.87997 -12.8766 7.6809
LeftShoulder1  2.05253 -6.35493 -13.8869
LeftArm  31.7512 -42.1094 -84.5264
LeftForeArm  46.3456 -58.4418 -14.1193
LeftHand  -0.473694 -2.74759 6.98302
RightShoulder  -0.964448 7.00328 -20.2267
RightArm  -45.3542 17.2368 -14.3253
RightForeArm  27.8879 5.95691 4.86376
RightHand  0.00858401 4.74373 -0.197199
LeftUpLeg  -20.4432 19.407 15.5157
LeftLeg  19.1741 -0.739187 0.0400288
LeftFoot  11.8789 3.09747 -15.356
LeftToes  2.52163e-011 5.65494e-011 -1.09494e-012
2105
root  -5.80546 49.1357 -35.42 3.55569 20.6953 6.2301
RightUpLeg  -15.4465 -31.7143 11.8909
RightLeg  42.5506 5.28015 4.88784
RightFoot  21.188 -8.64615 29.5762
RightToes  1.22775e-009 1.2921e-014 -6.02303e-014
Spine  12.292 -4.45546 -17.5703
Spine1  -6.31446 -7.58734 10.483
HEad  -0.44577 -14.5804 8.46108
LeftShoulder1  1.92546 -7.22272 -10.7155
LeftArm  46.5016 -46.1292 -97.0606
LeftForeArm  31.6564 -40.0382 -7.38464
LeftHand  -0.702788 -1.93913 11.3138
RightShoulder  -0.473071 4.10332 -16.861
RightArm  -47.5031 14.3194 -15.2584
RightForeArm  16.4264 5.03501 4.29695
RightHand  -0.103198 4.02595 -1.54191
LeftUpLeg  -23.3173 18.8606 15.0409
LeftLeg  23.3792 -3.23101 -1.19016
LeftFoot  10.4977 3.37309 -17.699
LeftToes  2.52163e-011 5.65494e-011 -1.09494e-012
2106
root  -7.86251 49.8923 -35.6547 4.4917 26.5449 5.67938
RightUpLeg  -27.4795 -25.4971 12.1811
RightLeg  61.8638 0.391571 0.267092
RightFoot  17.204 -6.10102 24.1441
RightToes  1.22775e-009 1.2921e-014 -6.02303e-014
Spine  13.4677 -5.4697 -19.5621
Spine1  -5.39719 -9.78988 15.84
HEad  2.61375 -15.7215 7.27062
LeftShoulder1  1.68879 -7.67758 -7.53653
LeftArm  65.8103 -49.5819 -106.453
LeftForeArm  16.8339 -26.7453 -4.84881
LeftHand  -0.761591 -2.50365 11.4041
RightShoulder  -0.136723 1.76187 -12.7218
RightArm  -47.4126 12.7473 -16.3824
RightForeArm  14.8701 4.22334 3.96966
RightHand  -0.222581 4.08239 -2.9986
LeftUpLeg  -24.0974 16.7566 14.9056
LeftLeg  26.215 -4.48551 -2.04922
LeftFoot  9.24418 3.06383 -17.0765
LeftToes  2.52163e-011 5.65494e-011 -1.09494e-012
2107
root  -9.79594 50.2808 -35.8482 4.961 29.1176 5.6908
RightUpLeg  -36.413 -18.77 7.4066
RightLeg  79.0103 0.524723 1.60287
RightFoot  14.0329 -4.35934 19.6302
RightToes  1.22775e-009 1.2921e-014 -6.02303e-014
Spine  14.0856 -5.6944 -19.2441
Spine1  -5.30878 -10.4723 18.4834
HEad  5.63958 -15.7498 4.51223
LeftShoulder1  1.42843 -7.61554 -4.99686
LeftArm  65.5717 -51.219 -108.514
LeftForeArm  20.175 -17.5824 -9.19308
LeftHand  -0.76145 -2.22984 11.792
RightShoulder  0.0170235 1.12043 -9.30977
RightArm  -44.1332 11.79 -14.9212
RightForeArm  17.6857 3.25357 4.5855
RightHand  -0.0721825 3.92568 -1.16546
LeftUpLeg  -21.1236 14.8804 14.8947
LeftLeg  26.6451 -2.43674 -0.96883
LeftFoot  7.35535 2.65543 -16.3111
LeftToes  2.52163e-011 5.65494e-011 -1.09494e-012
2108
root  -11.6177 50.32 -35.9911 4.73102 29.4209 5.49469
RightUpLeg  -43.2275 -13.4571 -0.0703158
RightLeg  92.9473 0.00471105 3.43441
RightFoot  11.0405 -2.90681 15.0043
RightToes  1.22775e-009 1.2921e-014 -6.02303e-014
Spine  14.1197 -5.31939 -16.3101
Spine1  -5.29472 -9.94276 18.9026
HEad  8.20418 -15.6104 0.817835
LeftShoulder1  1.40041 -6.98493 -5.56674
LeftArm  47.3348 -49.1993 -100.074
LeftForeArm  28.8179 -12.1747 -13.0041
LeftHand  -0.735189 -1.80276 12.0384
RightShoulder  0.230541 2.4834 -5.27791
RightArm  -40.1563 11.3834 -13.6794
RightForeArm  15.8457 1.90801 5.90787
RightHand  0.0343695 3.9105 0.163293
LeftUpLeg  -15.9606 12.7939 14.7222
LeftLeg  26.5298 0.165323 0.453135
LeftFoot  6.91934 2.31335 -14.5922
LeftToes  2.52163e-011 5.65494e-011 -1.09494e-012
2109
root  -13.4072 50.009 -36.1425 3.54025 28.2496 4.5538
RightUpLeg  -48.2365 -10.4442 -8.10607
RightLeg  102.827 0.559976 -0.840851
RightFoot  6.77405 -1.7852 11.4567
RightToes  1.22775e-009 1.2921e-014 -6.02303e-014
Spine  13.7768 -4.19058 -11.0135
Spine1  -4.03284 -8.37614 17.7859
HEad  8.70722 -15.8504 -2.24612
LeftShoulder1  1.54342 -6.4841 -7.92789
LeftArm  30.9522 -43.6067 -86.2455
LeftForeArm  30.3585 -10.5432 -13.5121
LeftHand  -0.701172 -1.62869 11.7639
RightShoulder  0.617269 4.16341 -0.447323
RightArm  -38.6137 11.573 -12.4608
RightForeArm  17.9032 -0.315043 5.93914
RightHand  0.123736 4.11481 1.23706
LeftUpLeg  -10.1383 12.6517 14.3583
LeftLeg  27.1444 0.836207 0.826738
LeftFoot  7.15001 2.23962 -13.9705
LeftToes  2.52163e-011 5.65494e-011 -1.09494e-012
2110
root  -15.2072 49.3804 -36.3767 2.38388 27.1332 2.91724
RightUpLeg  -52.4069 -9.65413 -15.1674
RightLeg  107.332 3.94045 -10.1001
RightFoot  4.39896 -1.27014 9.3876
RightToes  1.22775e-009 1.2921e-014 -6.02303e-014
Spine  13.499 -3.29182 -3.69738
Spine1  -2.59645 -6.52324 15.7438
HEad  8.2343 -15.9991 -4.82065
LeftShoulder1  1.69286 -5.88193 -10.8101
LeftArm  15.3521 -35.8334 -70.643
LeftForeArm  34.6967 -7.39651 -14.3643
LeftHand  -0.664485 -1.86198 10.8178
RightShoulder  1.19607 5.60931 5.33165
RightArm  -37.7541 12.3605 -10.9981
RightForeArm  15.2143 -1.42588 6.40738
RightHand  -0.0032252 4.23457 -0.316696
LeftUpLeg  -5.77243 13.3565 13.7919
LeftLeg  28.3743 -0.529759 0.0454454
LeftFoot  8.34347 2.65522 -15.5201
LeftToes  2.52163e-011 5.65494e-011 -1.09494e-012
2111
root  -17.082 48.4291 -36.6115 1.51935 25.0851 1.18542
RightUpLeg  -55.4097 -8.12407 -21.0854
RightLeg  106.514 5.44269 -14.836
RightFoot  3.7382 -0.877323 6.81384
RightToes  1.22775e-009 1.2921e-014 -6.02303e-014
Spine  14.5728 -2.46144 3.83017
Spine1  -2.48907 -4.2158 13.0516
HEad  7.61622 -16.2917 -7.04787
LeftShoulder1  1.71947 -4.63523 -14.2202
LeftArm  9.56069 -24.9753 -54.0985
LeftForeArm  31.0894 -7.26239 -14.4627
LeftHand  -0.581962 -2.17398 9.13072
RightShoulder  2.10101 8.05986 10.9925
RightArm  -36.6924 13.7176 -9.05227
RightForeArm  12.0766 -2.76551 7.0263
RightHand  0.301281 4.07206 3.42147
LeftUpLeg  -2.28677 14.7052 12.9471
LeftLeg  28.9669 -3.94661 -2.01353
LeftFoot  9.5462 3.43459 -18.8063
LeftToes  2.52163e-011 5.65494e-011 -1.09494e-012
